<?xml version="1.0" encoding="UTF-8" standalone="no"?>
<!-- Created with Inkscape (http://www.inkscape.org/) -->

<svg
   width="25.601562"
   height="25.601562"
   viewBox="0 0 25.601562 25.601562"
   version="1.1"
   id="svg1"
   xmlns="http://www.w3.org/2000/svg"
   xmlns:svg="http://www.w3.org/2000/svg">
  <defs
     id="defs1" />
  <g
     id="layer1"
     style="display:none"
     transform="translate(-3.1992188,-3.1992188)">
    <circle
       style="display:inline;fill:#f30035;fill-opacity:1;fill-rule:evenodd;stroke-width:5;stroke-linejoin:round;stroke-miterlimit:180;stroke-dashoffset:133.92;paint-order:stroke fill markers"
       id="path1"
       cx="16"
       cy="16"
       r="14.400001" />
  </g>
  <g
     id="layer2"
     style="display:inline"
     transform="translate(-3.1992188,-3.1992188)">
    <path
       style="display:none;fill:#ebebeb;fill-opacity:1;fill-rule:evenodd;stroke-width:5;stroke-linejoin:round;stroke-miterlimit:180;stroke-dashoffset:133.92;paint-order:stroke fill markers"
       d="M 3.2,26.91046 V 5.0895398 A 1.1677998,1.1677998 148.28253 0 1 4.8900558,4.0450279 L 27.109944,15.154972 a 0.9447699,0.9447699 90 0 1 0,1.690056 L 4.8900558,27.954972 A 1.1677998,1.1677998 31.717474 0 1 3.2,26.91046 Z"
       id="path2" />
  </g>
  <g
     id="layer3"
     style="display:none"
     transform="translate(-3.1992188,-3.1992188)">
    <path
       id="rect2"
       style="fill:#ebebeb;fill-opacity:1;fill-rule:evenodd;stroke-width:5;stroke-linejoin:round;stroke-miterlimit:180;stroke-dashoffset:133.92;paint-order:stroke fill markers"
       d="M 3.1992188,4.7999994 V 27.2 a 1.6007806,1.6007806 45 0 0 1.6007806,1.600781 H 11.2 A 1.6007806,1.6007806 135 0 0 12.800781,27.2 V 4.7999994 A 1.6007806,1.6007806 45 0 0 11.2,3.1992188 l -6.4000006,0 A 1.6007806,1.6007806 135 0 0 3.1992188,4.7999994 Z m 16.0000002,0 V 27.2 A 1.6007806,1.6007806 45 0 0 20.8,28.800781 h 6.4 A 1.6007806,1.6007806 135 0 0 28.800781,27.2 l 0,-22.4000006 A 1.6007806,1.6007806 45 0 0 27.2,3.1992188 h -6.4 a 1.6007806,1.6007806 135 0 0 -1.600781,1.6007806 z" />
  </g>
  <g
     id="layer4"
     style="display:none"
     transform="translate(-3.1992188,-3.1992188)">
    <rect
       style="fill:#c8c8c8;fill-opacity:1;fill-rule:evenodd;stroke-width:5;stroke-linejoin:round;stroke-miterlimit:180;stroke-dashoffset:133.92;paint-order:stroke fill markers"
       id="rect3"
       width="25.6"
       height="25.6"
       x="3.2"
       y="3.2"
       ry="1.5500379"
       rx="1.5500379" />
  </g>
  <g
     id="layer5"
     style="display:none"
     transform="translate(-3.1992188,-3.1992188)">
    <path
       id="path3"
       style="color:#000000;fill:#ebebeb;fill-rule:evenodd;stroke-linejoin:round;stroke-miterlimit:180;stroke-dashoffset:133.92;-inkscape-stroke:none;paint-order:stroke fill markers"
       d="M 13.5,3.1992188 V 14.765625 L 9.7675781,11.033203 6.2324219,14.568359 16,24.335938 25.767578,14.568359 22.232422,11.033203 18.5,14.765625 V 3.1992188 Z M 0.69921875,9.5996094 V 31.300781 H 31.300781 V 9.5996094 h -5 V 26.300781 H 5.6992188 V 9.5996094 Z" />
  </g>
  <g
     id="layer6"
     transform="translate(-3.1992188,-3.1992188)">
    <path
       id="rect6"
       style="fill:#ebebeb;fill-opacity:1;fill-rule:evenodd;stroke:none;stroke-width:5;stroke-linejoin:miter;stroke-miterlimit:180;stroke-dashoffset:133.92;stroke-opacity:1;paint-order:stroke fill markers"
       d="m 4.75,3.1992188 c -0.8587201,0 -1.5507812,0.6920611 -1.5507812,1.5507812 v 3.3007812 c 0,0.8587202 0.6920611,1.5488282 1.5507812,1.5488282 h 22.5 c 0.85872,0 1.550781,-0.690108 1.550781,-1.5488282 V 4.75 c 0,-0.8587201 -0.692061,-1.5507812 -1.550781,-1.5507812 z m 0,9.6015622 c -0.8587201,0 -1.5507812,0.690108 -1.5507812,1.548828 v 3.300782 c 0,0.85872 0.6920611,1.548828 1.5507812,1.548828 h 22.5 c 0.85872,0 1.550781,-0.690108 1.550781,-1.548828 v -3.300782 c 0,-0.85872 -0.692061,-1.548828 -1.550781,-1.548828 z m 0,9.59961 c -0.8587201,0 -1.5507812,0.690108 -1.5507812,1.548828 V 27.25 c 0,0.85872 0.6920611,1.550781 1.5507812,1.550781 h 22.5 c 0.85872,0 1.550781,-0.692061 1.550781,-1.550781 v -3.300781 c 0,-0.85872 -0.692061,-1.548828 -1.550781,-1.548828 z" />
  </g>
</svg>
