<svg width="512" height="512" version="1.2" viewBox="0 0 512 512" baseProfile="tiny-ps" xmlns="http://www.w3.org/2000/svg">
 <title>Melide</title>
 <g>
  <g fill-rule="evenodd">
   <rect width="512" height="512" rx="0" ry="0" fill="#171717"/>
   <circle cx="256" cy="256" r="177.19" fill="#2d2d2d"/>
   <circle cx="256" cy="256" r="90.223" fill="#565656"/>
  </g>
  <path d="m215.41 73.572c-0.57711 0.0204-1.0958 0.07221-1.5431 0.1347-1.7233 0.24071-3.1116 0.7388-3.9782 1.0941l-0.28289 0.11674-0.0779 0.03442c-4.742 2.0952-9.0751 4.9067-13.021 8.1779-3.9413 3.2673-7.5517 7.0368-10.864 11.125-6.5933 8.1364-12.295 17.887-17.254 28.311-3.4349 7.221-6.5741 14.954-9.471 22.932-4.5208 5.7851-8.8195 11.376-13.529 17.308-5.5754 7.0228-10.479 13.12-15.545 19.442-15.935-4.2553-26.306-5.6874-26.61-4.4946-0.27885 1.0969 8.9754 4.9351 21.808 10.501-9.3572 11.662-18.645 23.23-29.073 36.365-13.563 17.143-22.461 28.962-21.442 29.89 1.0194 0.92818 11.965-9.0429 27.593-24.359 10.361-10.154 22.939-22.888 35.901-36.131 1.9438 0.88227 3.9741 1.8256 6.0331 2.7838-5.1005 21.846-8.7569 42.705-11.077 58.371-1.3728 9.2696-2.2221 16.16-2.7644 21.07-3.552-0.89541-7.1045-1.8809-10.656-3.0203l-8.0148 22.494c47.078 18.394 84.625 31.613 114.57 41.27 0.89256 12.261 2.2732 23.836 3.9093 34.523-17.142 4.5245-34.5 8.2294-50.414 9.926-11.114-2.651-21.844-5.1767-30.531-7.1362-4.8498-1.094-9.3765-2.09-13.237-2.9006-1.8804-0.39483-3.6819-0.76268-5.3267-1.0821-1.7708-0.1468-3.4455-0.251-4.9825-0.29934-1.4589-0.0459-2.9711-0.0465-4.4182 0.0508-0.73001 0.0491-1.5658 0.13134-2.4456 0.27689-0.83089 0.13753-2.0199 0.38141-3.3301 0.86209-0.67491 0.24762-1.5177 0.60735-2.4276 1.1315-0.90244 0.5196-2.0319 1.2942-3.146 2.4261-1.1392 1.1573-2.2955 2.7258-3.0966 4.743-0.81651 2.0559-1.1106 4.1975-0.96088 6.2517 0.14521 1.9917 0.68738 3.6547 1.2632 4.9121 0.57058 1.2459 1.2328 2.2244 1.7885 2.9365 1.0705 1.3717 2.1968 2.3264 2.938 2.8991l0.24097 0.18558 0.0688 0.0509c4.1864 3.0579 8.7879 5.4022 13.594 7.1826 4.8008 1.7782 9.8716 3.0186 15.069 3.842 10.343 1.6387 21.639 1.6979 33.146 0.77677 8.064-0.64553 16.429-1.8109 24.887-3.3196 7.0374 0.99006 14.222 2.0314 21.461 3.1041 6.4725 0.95916 12.002 1.819 17.959 2.724 4.5016 17.218 8.7422 27.723 9.9784 27.374 1.1458-0.32318-0.31999-10.959-2.046-26.171 16.986 2.5983 33.485 5.1452 52.354 7.9414 21.629 3.1683 36.314 4.96 36.607 3.613 0.29374-1.347-13.816-5.8351-34.895-11.706-15.612-4.3478-35.328-9.4705-55.584-14.624-0.0988-1.0472-0.19509-2.0973-0.29184-3.176 0.38412-0.11206 0.7874-0.21069 1.1704-0.32327 23.353-6.865 45.089-14.842 60.936-21.114 6.7573-2.6744 11.789-4.8065 16.119-6.6632 1.5365 4.9266 2.8963 9.9593 4.0126 15.13l23.49-4.2925c-7.8972-52.06-15.507-92.503-22.308-123.8 9.5181-6.3513 18.346-12.785 26.416-19.087 13.355 13.297 26.136 27.35 36.152 41.109 3.2551 10.953 6.4267 21.51 9.0684 30.015 1.4748 4.7479 2.8734 9.1659 4.0994 12.915 0.59724 1.8262 1.1778 3.5716 1.7227 5.1561 0.75733 1.6073 1.5027 3.109 2.2286 4.4646 0.68901 1.2868 1.4438 2.598 2.251 3.8031 0.40718 0.60789 0.89518 1.2907 1.4608 1.9801 0.53417 0.65112 1.3403 1.5596 2.4112 2.4546 0.55166 0.46101 1.2841 1.0107 2.1926 1.5371 0.90093 0.52224 2.1373 1.1133 3.6744 1.5132 1.5717 0.4088 3.5067 0.62789 5.6545 0.3143 2.1889-0.31961 4.1922-1.1341 5.8969-2.2899 1.6528-1.1206 2.8218-2.4202 3.6235-3.5471 0.79435-1.1166 1.3115-2.1802 1.6508-3.0173 0.6536-1.6126 0.91731-3.065 1.0432-3.9932l0.042-0.30233 9e-3 -0.0853c0.55791-5.1541 0.28983-10.312-0.56873-15.365-0.85754-5.0472-2.3155-10.059-4.1982-14.973-3.747-9.7791-9.3372-19.594-15.883-29.102-4.5338-6.5857-9.6592-13.172-15.118-19.671-2.748-6.8088-5.4407-13.328-8.2213-20.373-2.7966-7.0856-5.1711-13.222-7.696-19.696 14.857-14.265 22.862-24.509 21.862-25.483-0.93959-0.91471-10.375 6.6355-25.032 17.371-5.7579-14.805-11.417-29.391-17.935-45.905-8.0592-20.32-13.843-33.937-15.157-33.518-1.3136 0.41836 1.8464 14.884 7.2904 36.078 3.7826 14.726 8.7924 32.959 14.051 51.743-1.4555 1.0225-2.7248 1.9534-4.2536 3.0083-17.006-16.085-34.016-30.322-46.902-40.55-9.4407-7.4932-15.328-11.833-18.861-14.353 3.7814-4.1716 7.7808-8.2225 12.065-12.107l-15.468-18.194c-42.22 33.754-74.108 61.201-98.022 83.029-9.869-4.6921-19.457-8.8173-28.509-12.361 4.9712-19.141 11.011-38.275 18.263-54.614 7.8552-8.2972 15.408-16.325 21.45-22.866 3.3734-3.6521 6.5013-7.0728 9.1343-10.01 1.2826-1.4307 2.5016-2.8066 3.601-4.071 1.0129-1.4598 1.9417-2.8571 2.7524-4.1638 0.76954-1.2403 1.526-2.5492 2.1657-3.851 0.32267-0.65666 0.67077-1.4224 0.98482-2.257 0.2966-0.78824 0.67824-1.9402 0.91746-3.3152 0.12323-0.70828 0.23365-1.617 0.23498-2.6671 2e-3 -1.0413-0.10413-2.4068-0.52683-3.9378-0.43222-1.5654-1.2104-3.3515-2.5563-5.0543-1.3717-1.7355-3.0796-3.0623-4.9331-3.9602-1.7972-0.8706-3.5084-1.2331-4.8852-1.3635-0.68213-0.06462-1.3177-0.07578-1.8948-0.05538zm67.89 104.28c2.3597 6.6847 5.5207 16.293 9.712 31.921 2.7844 10.382 5.9344 23.256 9.3139 38.385-7.6092 3.7018-15.489 7.2107-23.565 10.477-7.4075-6.2918-15.034-12.149-22.777-17.603 1.0717-4.0729 2.2208-8.1309 3.4992-12.155 5.0441-15.875 11.741-31.279 20.472-45.703 1.083-1.7892 2.1981-3.5648 3.3451-5.3237zm-136.28 6.9461c-0.20193 0.78827-0.41741 1.58-0.61513 2.3663-0.43641-0.14028-0.86012-0.27457-1.2916-0.4116 0.64056-0.65772 1.2652-1.295 1.9068-1.9547zm166.9 12.595c9.2915 7.8726 19.832 17.234 30.484 27.349-6.4438 4.022-13.253 8.08-20.424 12.087-2.9651-12.784-5.7582-23.908-8.2856-33.186-0.62418-2.2912-1.1813-4.1556-1.7751-6.2502zm-69.051 1.9726c-3.1251 7.3206-5.9421 14.723-8.332 22.196-0.60247 1.8836-1.1577 3.7739-1.7167 5.6635-4.3556-2.6296-8.7086-5.1777-13.039-7.5687 7.0582-6.3262 14.66-13.029 23.088-20.291zm-77.257 8.9876c6.3528 3.3084 12.95 6.9197 19.684 10.815-8.9447 8.3934-16.631 15.871-23.052 22.348-1.6714 1.6862-3.0067 3.1006-4.523 4.6622 2.0548-11.353 4.7076-24.347 7.8905-37.826zm40.562 23.664c7.3305 4.7978 14.664 9.9036 21.889 15.377-1.6432 9.2678-2.8123 18.504-3.6205 27.644-2.0406 0.50328-4.0843 0.99582-6.1394 1.4473-16.269 3.5741-32.959 5.4826-49.816 5.1381-3.702-0.0757-7.4144-0.27969-11.134-0.57922 4.666-5.3809 11.018-12.424 21.543-22.959 7.3056-7.3128 16.457-16.086 27.277-26.068zm41.898 31.8c1.3722 1.2176 2.7488 2.4258 4.1024 3.6714-1.7087 0.5349-3.434 1.0309-5.1561 1.5356 0.35065-1.7358 0.67188-3.4729 1.0537-5.207zm56.226 2.7629c1.8056 8.6708 3.6554 17.883 5.5662 27.964-4.7764-6.3694-9.7765-12.514-15.052-18.322-0.87595-0.96441-1.7778-1.8958-2.6656-2.8452 4.1469-2.213 8.1835-4.4884 12.152-6.7964zm-34.916 17.911c2.5857 2.5966 5.1365 5.2323 7.6106 7.9459 11.223 12.309 21.213 25.813 29.335 40.589 0.53985 0.98211 1.0497 1.9848 1.573 2.9784-6.4476-1.3837-14.572-3.2918-24.992-6.075-11.385-3.041-25.429-7.1269-42.142-12.425 0.46801-7.4541 1.1243-15.012 2.055-22.639 9.1087-3.0803 17.979-6.5626 26.56-10.374zm-46.269 15.595c-0.0722 3.9264-0.0913 7.815-0.0464 11.659-7.2023-2.3922-14.788-4.9687-22.884-7.7932 7.7521-0.94148 15.406-2.238 22.931-3.8659zm16.826 41.894c14.262 4.3928 26.682 7.9547 36.953 10.655 2.2967 0.60379 4.1899 1.0531 6.301 1.585-12.507 4.4923-27.255 9.4026-42.766 13.889-0.37244-8.2625-0.54927-17.04-0.48793-26.129z" fill="#57ffe1" stroke-dashoffset="133.92" stroke-miterlimit="180" stroke-width="50"/>
 </g>
</svg>