<?xml version="1.0" encoding="UTF-8" standalone="no"?>
<!-- Created with Inkscape (http://www.inkscape.org/) -->

<svg
   width="16.000179"
   height="6.0156245"
   viewBox="0 0 16.000179 6.0156245"
   version="1.1"
   id="svg1"
   xmlns:inkscape="http://www.inkscape.org/namespaces/inkscape"
   xmlns:sodipodi="http://sodipodi.sourceforge.net/DTD/sodipodi-0.dtd"
   xmlns="http://www.w3.org/2000/svg"
   xmlns:svg="http://www.w3.org/2000/svg">
  <sodipodi:namedview
     id="namedview1"
     pagecolor="#ffffff"
     bordercolor="#000000"
     borderopacity="0.25"
     inkscape:showpageshadow="2"
     inkscape:pageopacity="0.0"
     inkscape:pagecheckerboard="0"
     inkscape:deskcolor="#d1d1d1"
     inkscape:document-units="px"
     showgrid="true">
    <inkscape:grid
       id="grid1"
       units="px"
       originx="8.9576823e-05"
       originy="-4.7274432"
       spacingx="0.5"
       spacingy="0.5"
       empcolor="#0099e5"
       empopacity="0.30196078"
       color="#0099e5"
       opacity="0.14901961"
       empspacing="5"
       dotted="false"
       gridanglex="30"
       gridanglez="30"
       visible="true" />
  </sodipodi:namedview>
  <defs
     id="defs1" />
  <g
     inkscape:label="Layer 1"
     inkscape:groupmode="layer"
     id="layer1"
     transform="translate(8.9576824e-5,-4.7274432)">
    <path
       id="path5"
       style="fill:none;fill-rule:evenodd;stroke:#ffffff;stroke-width:1;stroke-linecap:round;stroke-linejoin:round;stroke-miterlimit:180;stroke-dasharray:none;stroke-opacity:1;paint-order:stroke fill markers"
       d="m 15.50006,6.243068 c 0,0 0,-1 -1.285919,-1 -1.28592,0 -1.28592,1.2209709 -1.28592,1.2209709 0,0 -0.01042,1.2868991 1.28592,1.2790291 1.286867,-0.00781 1.285919,1.3011262 1.285919,1.3011262 0,0 0,1.1988738 -1.285919,1.1988738 -1.28592,0 -1.28592,-1 -1.28592,-1 m -1.714559,-1.5 H 9.4991026 M 11.642302,5.227443 9.4991026,5.243068 v 5 h 2.1431994 m -6.4295975,-5 v 3.5 c 0,0 0,1.5 1.2859194,1.5 1.2859195,0 1.2859195,-1.5 1.2859195,-1.5 v -3.5 M 0.88893291,6.384079 0.49766672,5.243068 l 1.71455918,5 1.7145592,-5" />
  </g>
</svg>
